# AST/ASF file generated using VICON BodyLanguage
# -----------------------------------------------
:version 1.10
:name VICON
:units
  mass 1.0
  length 0.45
  angle deg
:documentation
   .ast/.asf automatically generated from VICON data using
   VICON BodyBuilder and BodyLanguage model FoxedUp or BRILLIANT.MOD
:root
   order TX TY TZ RX RY RZ
   axis XYZ
   position 0 0 0  
   orientation 0 0 0 
:bonedata
  begin
     id 1 
     name lhipjoint
     direction 0.573633 -0.743009 0.344793 
     length 2.46257 
     axis 0 0 0  XYZ
  end
  begin
     id 2 
     name lfemur
     direction 0.34202 -0.939693 0  
     length 7.3842  
     axis 0 0 20  XYZ
    dof rx ry rz
    limits (-160.0 20.0)
           (-70.0 70.0)
           (-60.0 70.0)
  end
  begin
     id 3 
     name ltibia
     direction 0.34202 -0.939693 0   
     length 7.50407   
     axis 0 0 20   XYZ
    dof rx
    limits (-10.0 170.0)
  end
  begin
     id 4 
     name lfoot
     direction 0.110749 -0.304281 0.946123   
     length 1.95925   
     axis -90 7.62852e-016 20   XYZ
    dof rx rz
    limits (-45.0 90.0)
           (-70.0 20.0)
  end
  begin
     id 5 
     name ltoes
     direction 1.53554e-011 -4.21843e-011 1   
     length 0.978318   
     axis -90 7.62852e-016 20   XYZ
    dof rx
    limits (-90.0 20.0)
  end
  begin
     id 6 
     name rhipjoint
     direction -0.488109 -0.791693 0.367385   
     length 2.31113  
     axis 0 0 0  XYZ 
  end
  begin
     id 7 
     name rfemur
     direction -0.34202 -0.939693 0   
     length 7.40965   
     axis 0 0 -20   XYZ
    dof rx ry rz
    limits (-160.0 20.0)
           (-70.0 70.0)
           (-70.0 60.0)
  end
  begin
     id 8 
     name rtibia
     direction -0.34202 -0.939693 0   
     length 7.55548   
     axis 0 0 -20   XYZ
    dof rx
    limits (-10.0 170.0)
 end
 begin
     id 9 
     name rfoot
     direction -0.127594 -0.350561 0.927808   
     length 2.07199  
     axis -90 -7.62852e-016 -20   XYZ
    dof rx rz
    limits (-45.0 90.0)
           (-20.0 70.0)
  end
  begin
     id 10 
     name rtoes
     direction -1.53542e-011 -4.21909e-011 1   
     length 1.02667   
     axis -90 -7.62852e-016 -20   XYZ
    dof rx
    limits (-90.0 20.0)
  end
  begin
     id 11 
     name lowerback
     direction -0.0103342 0.997298 -0.0727278   
     length 2.02836   
     axis 0 0 0   XYZ
    dof rx ry rz
    limits (-20.0 45.0)
           (-30.0 30.0)
           (-30.0 30.0)
  end
  begin
     id 12 
     name upperback
     direction 0.0171146 0.999786 -0.011606   
     length 2.03179   
     axis 0 0 0   XYZ
    dof rx ry rz
    limits (-20.0 45.0)
           (-30.0 30.0)
           (-30.0 30.0)
  end
  begin
     id 13 
     name thorax
     direction 0.0216927 0.999513 0.0224343   
     length 2.03882   
     axis 0 0 0   XYZ
    dof rx ry rz
    limits (-20.0 45.0)
           (-30.0 30.0)
           (-30.0 30.0)
  end
  begin
     id 14 
     name lowerneck
     direction 0.000989287 0.993907 0.110221   
     length 1.75428   
     axis 0 0 0   XYZ
    dof rx ry rz
    limits (-20.0 45.0)
           (-30.0 30.0)
           (-30.0 30.0)
  end
  begin
     id 15 
     name upperneck
     direction -0.0172474 0.994813 -0.100253   
     length 1.77058   
     axis 0 0 0   XYZ
    dof rx ry rz
    limits (-20.0 45.0)
           (-30.0 30.0)
           (-30.0 30.0)
  end
  begin
     id 16
     name head
     direction -0.00486455 0.99894 -0.0457663  
     length 1.77427  
     axis 0 0 0   XYZ
    dof rx ry rz
    limits (-20.0 45.0)
           (-30.0 30.0)
           (-30.0 30.0)
  end
  begin
     id 17 
     name lclavicle
     direction 0.927314 0.333734 -0.169441  
     length 3.97584  
     axis 0 0 0   XYZ
    dof ry rz
    limits (-20.0 10.0)
           (0.0 20.0)
  end
  begin
     id 18 
     name lhumerus
     direction 1 -4.48965e-011 -3.25313e-028   
     length 4.76468   
     axis 180 -30 -90   XYZ
    dof rx ry rz
    limits (-60.0 90.0)
           (-90.0 90.0)
           (-90.0 90.0)
  end
  begin
     id 19
     name lradius
     direction 1 -4.48969e-011 -2.8465e-028   
     length 3.52712   
     axis -180 -30 -90   XYZ
    dof rx
    limits (-10.0 170.0)
  end
  begin
     id 20
     name lwrist
     direction 1 -4.4896e-011 -7.78665e-028   
     length 1.76356   
     axis 1.91374e-015 90 90   XYZ
    dof ry
    limits (-180.0 0.0)
 end
  begin
     id 21 
     name lhand
     direction 1 -4.48959e-011 -1.55733e-027   
     length 0.859564   
     axis 9.9371e-016 90 90   XYZ
    dof rx rz
    limits (-90.0 90.0)
           (-45.0 45.0)
  end
  begin
     id 22 
     name lfingers
     direction 1 -4.48965e-011 -3.11466e-027   
     length 0.693002   
     axis 1.98742e-015 90 90   XYZ
    dof rx
    limits (0.0 90.0)
  end
  begin
     id 23
     name lthumb
     direction 0.707107 -6.34948e-011 0.707107   
     length 0.995017   
     axis -90 45 2.85299e-015   XYZ
    dof rx rz
    limits (-45.0 45.0)
           (-45.0 45.0)
  end
  begin
     id 24 
     name rclavicle
     direction -0.899388 0.348209 -0.264294   
     length 3.68366  
     axis 0 0 0   XYZ 
    dof ry rz
    limits (-10.0 20.0)
           (-20.0 0.0)
  end
  begin
     id 25 
     name rhumerus
     direction -1 -4.48965e-011 -3.01536e-027  
     length 4.90577   
     axis 180 30 90   XYZ
    dof rx ry rz
    limits (-90.0 60.0)
           (-90.0 90.0)
           (-90.0 90.0)
  end
  begin
     id 26 
     name rradius
     direction -1 -4.48966e-011 3.93291e-027   
     length 3.42692   
     axis -180 30 90   XYZ
    dof rx
    limits (-10.0 170.0)
  end
  begin
     id 27 
     name rwrist
     direction -1 -4.48969e-011 -7.78665e-028   
     length 1.71346   
     axis 1.91374e-015 -90 -90   XYZ
    dof ry
    limits (-180.0 0.0)
  end
  begin
     id 28
     name rhand
     direction -1 -4.48967e-011 -1.55733e-027   
     length 0.740957   
     axis 9.9371e-016 -90 -90   XYZ
    dof rx rz
    limits (-90.0 90.0)
           (-45.0 45.0)
  end
  begin
     id 29
     name rfingers
     direction -1 -4.48949e-011 -3.11466e-027   
     length 0.597378   
     axis 1.98742e-015 -90 -90   XYZ
    dof rx
    limits (0.0 90.0)
  end
  begin
     id 30
     name rthumb
     direction -0.707107 -6.34931e-011 0.707107   
     length 0.857719   
     axis -90 -45 -2.85299e-015   XYZ
    dof rx rz
    limits (-45.0 45.0)
           (-45.0 45.0)
  end
:hierarchy
  begin
    root lhipjoint rhipjoint lowerback
    lhipjoint lfemur
    lfemur ltibia
    ltibia lfoot
    lfoot ltoes
    rhipjoint rfemur
    rfemur rtibia
    rtibia rfoot
    rfoot rtoes
    lowerback upperback
    upperback thorax
    thorax lowerneck lclavicle rclavicle
    lowerneck upperneck
    upperneck head
    lclavicle lhumerus
    lhumerus lradius
    lradius lwrist
    lwrist lhand lthumb
    lhand lfingers
    rclavicle rhumerus
    rhumerus rradius
    rradius rwrist
    rwrist rhand rthumb
    rhand rfingers
  end

#!OML:ASF I:\AllaLogoMonkeySwing\Project 1\Capture day 1\Session 1\Subject1.ASF
:FULLY-SPECIFIED
:DEGREES
128
root -4.96141 17.4465 -19.4211 26.5541 2.04489 3.66553
lowerback 40.0938 1.29013 2.39015
upperback 10.8836 3.02797 4.86202
thorax -7.42767 1.30111 2.73693
lowerneck -8.65955 -3.68534 -3.59138
upperneck -6.83138 -4.68089 0.719025
head -0.586491 -2.29808 0.710873
rclavicle -6.36111e-015 -8.74653e-015
rhumerus 6.67861 6.38342 -78.3372
rradius 35.7677
rwrist -10.0159
rhand -16.7951 -32.7849
rfingers 7.12502
rthumb 9.43307 -62.5538
lclavicle -6.36111e-015 -8.74653e-015
lhumerus -31.7665 -15.6411 105.019
lradius 83.9592
lwrist 20.3797
lhand -18.0363 -31.6312
lfingers 7.12502
lthumb 8.23534 -1.81172
rfemur -55.0475 -3.10703 18.3526
rtibia 43.1328
rfoot -14.5099 -2.15633
rtoes 13.879
lfemur -50.489 0.294014 -28.076
ltibia 36.8847
lfoot -13.7803 -5.38585
ltoes -24.3243
129
root -4.95298 17.4871 -19.306 24.6719 1.67258 3.1896
lowerback 39.2257 1.50756 2.10393
upperback 10.7224 3.11726 4.52782
thorax -7.32684 1.35529 2.50172
lowerneck -9.36232 -3.59145 -3.21076
upperneck -6.25848 -4.55231 0.553428
head -0.312693 -2.24401 0.58024
rclavicle 1.59028e-015 3.97569e-015
rhumerus 3.1921 5.94514 -79.0804
rradius 36.4232
rwrist -11.0735
rhand -16.7717 -32.8941
rfingers 7.12502
rthumb 9.45567 -62.662
lclavicle 1.59028e-015 3.97569e-015
lhumerus -31.9731 -13.4018 103.859
lradius 82.6449
lwrist 19.7357
lhand -17.8304 -30.1752
lfingers 7.12502
lthumb 8.43401 -0.363573
rfemur -52.3993 -2.70647 18.6332
rtibia 42.8793
rfoot -14.902 -2.0546
rtoes 12.1997
lfemur -47.8615 0.817328 -27.6107
ltibia 36.6779
lfoot -14.2695 -4.6771
ltoes -24.7115
130
root -4.95822 17.5199 -19.2116 23.0894 1.80465 2.97451
lowerback 38.2555 1.54232 1.84221
upperback 10.3956 3.0263 4.27612
thorax -7.3663 1.32729 2.41313
lowerneck -9.9214 -3.47397 -2.97509
upperneck -5.60847 -4.3846 0.515199
head -0.0302103 -2.16636 0.518548
rclavicle 7.95139e-015 -7.15625e-015
rhumerus -0.294768 5.3565 -79.7452
rradius 37.0239
rwrist -11.3494
rhand -16.1637 -33.2919
rfingers 7.12502
rthumb 10.0422 -63.0323
lclavicle 7.95139e-015 -7.15625e-015
lhumerus -32.2261 -11.1763 102.612
lradius 81.1142
lwrist 18.8999
lhand -17.896 -28.4322
lfingers 7.12502
lthumb 8.37066 1.38196
rfemur -50.0853 -2.70892 18.8421
rtibia 42.5393
rfoot -14.9741 -2.10746
rtoes 10.1613
lfemur -45.5789 0.971443 -27.2563
ltibia 36.398
lfoot -14.716 -4.37801
ltoes -24.8563
131
root -4.96174 17.5516 -19.1064 21.4804 1.80065 2.69524
lowerback 37.2777 1.58628 1.49384
upperback 10.0523 2.9179 4.01521
thorax -7.41422 1.28955 2.36808
lowerneck -10.4282 -3.27585 -2.9777
upperneck -4.67678 -4.08362 0.713802
head 0.345999 -2.01573 0.574569
rclavicle 1.59028e-014 9.54166e-015
rhumerus -3.69624 4.91237 -80.3218
rradius 37.5154
rwrist -11.1581
rhand -15.2131 -33.9519
rfingers 7.12502
rthumb 10.9592 -63.6458
lclavicle 1.59028e-014 9.54166e-015
lhumerus -32.527 -8.80219 101.246
lradius 79.4163
lwrist 18.052
lhand -18.1889 -26.5866
lfingers 7.12502
lthumb 8.08804 3.23867
rfemur -47.5848 -2.65112 19.1111
rtibia 42.0748
rfoot -15.1799 -2.12523
rtoes 9.7237
lfemur -43.1778 1.09944 -26.8019
ltibia 36.0711
lfoot -15.1284 -3.914
ltoes -25.6411
132
root -4.96465 17.5819 -18.9934 20.0063 1.82345 2.33108
lowerback 36.1375 1.56465 1.22823
upperback 9.71325 2.76222 3.78274
thorax -7.38519 1.22978 2.33178
lowerneck -11.1589 -3.10017 -3.1551
upperneck -3.31084 -3.78981 1.11741
head 0.91448 -1.86379 0.722741
rclavicle -2.38542e-014 -1.43125e-014
rhumerus -6.90078 4.49145 -80.8158
rradius 37.6801
rwrist -10.9561
rhand -14.7434 -33.8343
rfingers 7.12502
rthumb 11.4122 -63.5037
lclavicle -2.38542e-014 -1.43125e-014
lhumerus -32.7899 -6.37577 99.7913
lradius 77.5756
lwrist 17.436
lhand -18.51 -25.0765
lfingers 7.12502
lthumb 7.77808 4.76041
rfemur -45.1769 -2.54244 19.4678
rtibia 41.6022
rfoot -15.4728 -2.18574
rtoes 10.7424
lfemur -40.8725 1.19915 -26.236
ltibia 35.6991
lfoot -15.6286 -3.49062
ltoes -26.7878
133
root -4.96814 17.6084 -18.8778 18.7249 1.85015 1.96749
lowerback 34.7815 1.28707 0.514066
upperback 9.30511 2.17642 3.82738
thorax -7.48569 0.966261 2.96439
lowerneck -11.0396 -2.64875 -3.88128
upperneck -2.35593 -3.0971 1.34646
head 1.20962 -1.50933 0.947564
rclavicle -1.59028e-015 6.36111e-015
rhumerus -10.0008 5.43349 -81.163
rradius 37.6066
rwrist -10.9322
rhand -14.7756 -33.1642
rfingers 7.12502
rthumb 11.3811 -62.8353
lclavicle -1.59028e-015 6.36111e-015
lhumerus -33.3814 -2.56223 98.3415
lradius 75.7142
lwrist 16.9623
lhand -18.6249 -23.9192
lfingers 7.12502
lthumb 7.66719 5.92182
rfemur -43.0105 -2.45102 19.8284
rtibia 41.0636
rfoot -15.7302 -2.2448
rtoes 11.5731
lfemur -38.7698 1.33041 -25.6995
ltibia 35.2751
lfoot -16.1095 -3.2084
ltoes -27.1164
134
root -4.97162 17.6334 -18.7545 17.5324 1.73187 1.75287
lowerback 33.452 1.32239 0.157085
upperback 8.89429 2.06346 3.4995
thorax -7.43331 0.927689 2.86191
lowerneck -10.9207 -2.47441 -2.64421
upperneck -2.12878 -3.0025 0.396861
head 1.21527 -1.49003 0.441539
rclavicle 1.35174e-014 1.27222e-014
rhumerus -12.8078 4.52806 -81.5937
rradius 37.5703
rwrist -10.7801
rhand -14.6658 -33.307
rfingers 7.12502
rthumb 11.4871 -62.9723
lclavicle 1.35174e-014 1.27222e-014
lhumerus -33.7716 -0.555158 96.6318
lradius 73.5483
lwrist 16.8638
lhand -18.6431 -22.8353
lfingers 7.12502
lthumb 7.64963 7.00631
rfemur -40.8891 -2.33713 20.0028
rtibia 40.4473
rfoot -16.0403 -2.27338
rtoes 11.9406
lfemur -36.6966 1.46745 -25.3587
ltibia 34.7931
lfoot -16.4853 -2.89105
ltoes -27.0671
135
root -4.97901 17.661 -18.625 16.5107 1.51534 1.56373
lowerback 31.6522 1.4783 -0.20966
upperback 8.87179 2.11303 3.1357
thorax -7.37775 0.983963 2.88137
lowerneck -11.0482 -2.38295 -2.49084
upperneck -1.43163 -2.88694 0.322979
head 1.4593 -1.43734 0.392849
rclavicle 5.56597e-015 1.11319e-014
rhumerus -15.3186 3.41344 -81.6863
rradius 37.372
rwrist -10.7878
rhand -14.666 -33.762
rfingers 7.12502
rthumb 11.4869 -63.4273
lclavicle 5.56597e-015 1.11319e-014
lhumerus -34.1368 1.05619 95.1316
lradius 71.299
lwrist 17.0823
lhand -18.7372 -21.9121
lfingers 7.12502
lthumb 7.55882 7.93287
rfemur -38.8706 -2.07193 20.1186
rtibia 39.7432
rfoot -16.3066 -2.29713
rtoes 12.3798
lfemur -34.7469 1.66229 -25.0655
ltibia 34.2393
lfoot -16.785 -2.59958
ltoes -26.6248
136
root -4.9898 17.6917 -18.4947 15.5759 1.23994 1.24983
lowerback 30.1661 1.60392 -0.541905
upperback 8.41337 2.15637 2.96999
thorax -7.21328 1.013 2.87978
lowerneck -11.3893 -2.20143 -3.06669
upperneck -0.300426 -2.56346 0.770827
head 1.90763 -1.26834 0.642482
rclavicle 5.56597e-015 -3.97569e-015
rhumerus -17.6169 2.20888 -81.5257
rradius 37.2
rwrist -9.70315
rhand -13.4171 -35.0974
rfingers 7.12502
rthumb 12.6911 -64.6918
lclavicle 5.56597e-015 -3.97569e-015
lhumerus -34.5507 2.78032 93.7015
lradius 69.0413
lwrist 17.3672
lhand -18.9198 -20.9983
lfingers 7.12502
lthumb 7.38259 8.85284
rfemur -36.918 -1.73551 20.3823
rtibia 38.9765
rfoot -16.65 -2.27835
rtoes 14.1878
lfemur -32.845 2.03151 -24.67
ltibia 33.5848
lfoot -17.0557 -2.41278
ltoes -25.7469
